HIERARCHY
ROOT Hips
{
	OFFSET 0.000000 0.000000 0.000000
	CHANNELS 6 Xposition Yposition Zposition Xrotation Yrotation Zrotation
	JOINT C_ctrl
	{
		OFFSET 0.000000 35.040482 -0.000011
		CHANNELS 3 Xrotation Yrotation Zrotation
		JOINT Bip01
		{
			OFFSET -41.537640 41.789009 -0.000007
			CHANNELS 3 Xrotation Yrotation Zrotation
			JOINT Bip01_Pelvis
			{
				OFFSET -2.462887 0.000000 0.000000
				CHANNELS 3 Xrotation Yrotation Zrotation
				JOINT BN_Tail_01
				{
					OFFSET -11.399368 7.351341 -0.000013
					CHANNELS 3 Xrotation Yrotation Zrotation
					JOINT BN_Tail_02
					{
						OFFSET -11.365196 -0.343025 0.000012
						CHANNELS 3 Xrotation Yrotation Zrotation
						JOINT BN_Tail_03
						{
							OFFSET -15.076256 -0.454979 0.000017
							CHANNELS 3 Xrotation Yrotation Zrotation
							JOINT BN_Tail_04
							{
								OFFSET -17.395691 -0.525002 0.000016
								CHANNELS 3 Xrotation Yrotation Zrotation
								JOINT BN_Tail_05
								{
									OFFSET -16.699837 -0.504005 0.000016
									CHANNELS 3 Xrotation Yrotation Zrotation
									End Site
									{
										OFFSET 0.503998 -16.699829 0.000067
									}
								}
							}
						}
					}
				}
				JOINT Bip01_Spine
				{
					OFFSET 8.297798 5.916809 -0.000020
					CHANNELS 3 Xrotation Yrotation Zrotation
					JOINT Bip01_R_Thigh
					{
						OFFSET -8.297779 -5.916794 10.541781
						CHANNELS 3 Xrotation Yrotation Zrotation
						JOINT Bip01_R_Calf
						{
							OFFSET 5.631542 -22.906792 0.862690
							CHANNELS 3 Xrotation Yrotation Zrotation
							JOINT Bip01_R_HorseLink
							{
								OFFSET -16.984341 -19.231926 -3.555767
								CHANNELS 3 Xrotation Yrotation Zrotation
								JOINT Bip01_R_Foot
								{
									OFFSET 4.290367 -24.783146 0.578056
									CHANNELS 3 Xrotation Yrotation Zrotation
									JOINT Bip01_R_Toe0
									{
										OFFSET 3.561211 -5.815116 0.760802
										CHANNELS 3 Xrotation Yrotation Zrotation
										JOINT Bip01_R_Toe0Nub
										{
											OFFSET 16.135469 0.002017 1.534789
											CHANNELS 3 Xrotation Yrotation Zrotation
											End Site
											{
												OFFSET -0.000002 16.208284 -0.000056
											}
										}
									}
								}
							}
						}
					}
					JOINT Bip01_L_Thigh
					{
						OFFSET -8.297813 -5.916832 -10.541739
						CHANNELS 3 Xrotation Yrotation Zrotation
						JOINT Bip01_L_Calf
						{
							OFFSET 5.631535 -22.906792 -0.862625
							CHANNELS 3 Xrotation Yrotation Zrotation
							JOINT Bip01_L_HorseLink
							{
								OFFSET -16.984318 -19.231949 3.555875
								CHANNELS 3 Xrotation Yrotation Zrotation
								JOINT Bip01_L_Foot
								{
									OFFSET 4.290367 -24.783169 -0.577965
									CHANNELS 3 Xrotation Yrotation Zrotation
									JOINT Bip01_L_Toe0
									{
										OFFSET 3.561245 -5.815111 -0.760799
										CHANNELS 3 Xrotation Yrotation Zrotation
										JOINT Bip01_L_Toe0Nub
										{
											OFFSET 6.574303 -0.000005 -1.538561
											CHANNELS 3 Xrotation Yrotation Zrotation
											End Site
											{
												OFFSET 0.000004 -6.751935 0.000023
											}
										}
									}
								}
							}
						}
					}
					JOINT Bip01_Spine1
					{
						OFFSET 20.556803 -4.626213 -0.000025
						CHANNELS 3 Xrotation Yrotation Zrotation
						JOINT Saddle
						{
							OFFSET 17.608810 18.174690 -0.000143
							CHANNELS 3 Xrotation Yrotation Zrotation
							End Site
							{
								OFFSET -0.000063 -0.000061 -22.448387
							}
						}
						JOINT BN_center
						{
							OFFSET 10.743275 -13.417107 -0.172041
							CHANNELS 3 Xrotation Yrotation Zrotation
							End Site
							{
								OFFSET 22.434088 0.553078 -0.579614
							}
						}
						JOINT Bip01_Spine2
						{
							OFFSET 24.765072 -2.054115 -0.000032
							CHANNELS 3 Xrotation Yrotation Zrotation
							JOINT Handle
							{
								OFFSET 63.735676 16.430748 -16.052464
								CHANNELS 3 Xrotation Yrotation Zrotation
								JOINT IK_Chain01
								{
									OFFSET -4.713058 -6.020439 0.185448
									CHANNELS 3 Xrotation Yrotation Zrotation
									End Site
									{
										OFFSET -0.000023 -0.000023 -7.648071
									}
								}
							}
							JOINT BN_hair04_01
							{
								OFFSET 1.987491 16.256981 -2.049672
								CHANNELS 3 Xrotation Yrotation Zrotation
								JOINT BN_hair04_02
								{
									OFFSET -1.318762 -3.831451 -6.174704
									CHANNELS 3 Xrotation Yrotation Zrotation
									JOINT BN_hair04_03
									{
										OFFSET -0.827490 -5.886627 -5.656666
										CHANNELS 3 Xrotation Yrotation Zrotation
										End Site
										{
											OFFSET -2.658262 5.010620 -5.929780
										}
									}
								}
							}
							JOINT Bip01_Neck
							{
								OFFSET 25.574577 9.433014 -0.000084
								CHANNELS 3 Xrotation Yrotation Zrotation
								JOINT Bip01_R_Clavicle
								{
									OFFSET -16.535652 0.011192 6.705692
									CHANNELS 3 Xrotation Yrotation Zrotation
									JOINT Bip01_R_UpperArm
									{
										OFFSET 20.272621 -12.959984 2.510816
										CHANNELS 3 Xrotation Yrotation Zrotation
										JOINT Bip01_R_Forearm
										{
											OFFSET -13.633509 -15.503704 -0.653585
											CHANNELS 3 Xrotation Yrotation Zrotation
											JOINT Bip01_R_Hand
											{
												OFFSET 2.580030 -27.804676 -1.136415
												CHANNELS 3 Xrotation Yrotation Zrotation
												JOINT Bip01_R_Finger0
												{
													OFFSET -0.281744 -19.659061 -0.398649
													CHANNELS 3 Xrotation Yrotation Zrotation
													JOINT Bip01_Xtra02
													{
														OFFSET 4.152210 -5.712314 0.433813
														CHANNELS 3 Xrotation Yrotation Zrotation
														JOINT Bip01_Xtra02Nub
														{
															OFFSET 15.457960 0.041654 0.507982
															CHANNELS 3 Xrotation Yrotation Zrotation
															End Site
															{
																OFFSET -15.421730 -0.157725 -1.163459
															}
														}
													}
													JOINT Bip01_R_Finger0Nub
													{
														OFFSET 8.362326 -9.718440 -0.143142
														CHANNELS 3 Xrotation Yrotation Zrotation
														End Site
														{
															OFFSET -1.213036 -0.198171 9.872291
														}
													}
												}
											}
										}
									}
								}
								JOINT Bip01_L_Clavicle
								{
									OFFSET -16.535673 0.011162 -6.705583
									CHANNELS 3 Xrotation Yrotation Zrotation
									JOINT Bip01_L_UpperArm
									{
										OFFSET 20.272615 -12.959999 -2.510836
										CHANNELS 3 Xrotation Yrotation Zrotation
										JOINT Bip01_L_Forearm
										{
											OFFSET -13.633495 -15.503681 0.653678
											CHANNELS 3 Xrotation Yrotation Zrotation
											JOINT Bip01_L_Hand
											{
												OFFSET 2.579988 -27.804686 1.136487
												CHANNELS 3 Xrotation Yrotation Zrotation
												JOINT Bip01_L_Finger0
												{
													OFFSET -0.281765 -19.659058 0.398696
													CHANNELS 3 Xrotation Yrotation Zrotation
													JOINT Bip01_Xtra01
													{
														OFFSET 4.083549 -5.738758 -0.666714
														CHANNELS 3 Xrotation Yrotation Zrotation
														JOINT Bip01_Xtra01Nub
														{
															OFFSET 6.758158 -0.395525 -0.023239
															CHANNELS 3 Xrotation Yrotation Zrotation
															End Site
															{
																OFFSET 6.764923 -0.254147 -0.029908
															}
														}
													}
													JOINT Bip01_L_Finger0Nub
													{
														OFFSET -0.012636 -9.629153 0.045740
														CHANNELS 3 Xrotation Yrotation Zrotation
														End Site
														{
															OFFSET 0.988407 0.004791 8.293357
														}
													}
												}
											}
										}
									}
								}
								JOINT BN_hair03_01
								{
									OFFSET -5.894140 16.270622 -2.498433
									CHANNELS 3 Xrotation Yrotation Zrotation
									JOINT BN_hair03_02
									{
										OFFSET -0.189278 -7.800507 -6.219162
										CHANNELS 3 Xrotation Yrotation Zrotation
										JOINT BN_hair03_03
										{
											OFFSET 0.612345 -10.844475 -3.370718
											CHANNELS 3 Xrotation Yrotation Zrotation
											End Site
											{
												OFFSET -2.273296 2.862007 -10.769416
											}
										}
									}
								}
								JOINT Bip01_Neck1
								{
									OFFSET 9.383755 11.908699 -0.000007
									CHANNELS 3 Xrotation Yrotation Zrotation
									JOINT BN_hair02_01
									{
										OFFSET 9.126320 18.808022 -1.420810
										CHANNELS 3 Xrotation Yrotation Zrotation
										JOINT BN_hair02_02
										{
											OFFSET 0.393478 -5.181091 -5.248574
											CHANNELS 3 Xrotation Yrotation Zrotation
											JOINT BN_hair02_03
											{
												OFFSET 0.762280 -8.167076 -0.230047
												CHANNELS 3 Xrotation Yrotation Zrotation
												End Site
												{
													OFFSET -0.025837 -1.251419 -8.109770
												}
											}
										}
									}
									JOINT Bip01_Head
									{
										OFFSET 14.266129 10.475403 -0.000008
										CHANNELS 3 Xrotation Yrotation Zrotation
										JOINT BN_Reins_01
										{
											OFFSET 18.547455 -15.740112 -0.000035
											CHANNELS 3 Xrotation Yrotation Zrotation
											JOINT BN_Reins_02
											{
												OFFSET -5.372810 -5.884506 0.000028
												CHANNELS 3 Xrotation Yrotation Zrotation
												JOINT BN_Reins_03
												{
													OFFSET -6.395866 -15.947449 0.000070
													CHANNELS 3 Xrotation Yrotation Zrotation
													JOINT BN_Halter_R_01
													{
														OFFSET -1.234055 -3.096100 7.096737
														CHANNELS 3 Xrotation Yrotation Zrotation
														End Site
														{
															OFFSET 10.514435 -4.176861 -0.000004
														}
													}
													JOINT BN_Halter_L_01
													{
														OFFSET -1.234062 -3.096146 -7.096726
														CHANNELS 3 Xrotation Yrotation Zrotation
														End Site
														{
															OFFSET -10.514435 4.176865 -0.000000
														}
													}
													JOINT BN_Reins_04
													{
														OFFSET -6.737644 -16.971684 0.000074
														CHANNELS 3 Xrotation Yrotation Zrotation
														JOINT BN_Halter_R_02
														{
															OFFSET -4.688869 -11.781956 7.096771
															CHANNELS 3 Xrotation Yrotation Zrotation
															End Site
															{
																OFFSET 14.669624 -5.827511 -0.000006
															}
														}
														JOINT BN_Halter_L_02
														{
															OFFSET -4.688892 -11.782017 -7.096693
															CHANNELS 3 Xrotation Yrotation Zrotation
															End Site
															{
																OFFSET -14.669624 5.827507 -0.000002
															}
														}
														JOINT BN_Reins_05
														{
															OFFSET -6.822578 -16.971161 0.000074
															CHANNELS 3 Xrotation Yrotation Zrotation
															JOINT BN_Reins_06
															{
																OFFSET -6.140354 -15.095148 0.000066
																CHANNELS 3 Xrotation Yrotation Zrotation
																End Site
																{
																	OFFSET -15.095150 6.140352 -0.000002
																}
															}
														}
													}
												}
											}
										}
										JOINT BN_hair01_01
										{
											OFFSET 8.957344 8.870956 0.112121
											CHANNELS 3 Xrotation Yrotation Zrotation
											JOINT BN_hair01_02
											{
												OFFSET 6.002075 -2.962952 -3.121264
												CHANNELS 3 Xrotation Yrotation Zrotation
												End Site
												{
													OFFSET 5.917702 3.813591 -2.232396
												}
											}
										}
										JOINT BN_Eyebrow_R
										{
											OFFSET 11.795959 -0.430496 4.449781
											CHANNELS 3 Xrotation Yrotation Zrotation
											JOINT Bip01_Xtra06Nub
											{
												OFFSET 2.936661 -0.262573 3.246701
												CHANNELS 3 Xrotation Yrotation Zrotation
												End Site
												{
													OFFSET 2.768745 0.208199 3.394807
												}
											}
										}
										JOINT BN_Eyebrow_L
										{
											OFFSET 11.586395 -0.445618 -4.441728
											CHANNELS 3 Xrotation Yrotation Zrotation
											JOINT Bip01_Xtra05Nub
											{
												OFFSET 3.244698 -0.349442 -4.416700
												CHANNELS 3 Xrotation Yrotation Zrotation
												End Site
												{
													OFFSET 3.053162 0.072495 -4.564033
												}
											}
										}
										JOINT Bip01_R_Ear_01
										{
											OFFSET 7.142960 7.567184 4.311657
											CHANNELS 3 Xrotation Yrotation Zrotation
											JOINT Bip01_Xtra04Nub
											{
												OFFSET 9.464531 9.264214 1.682953
												CHANNELS 3 Xrotation Yrotation Zrotation
												End Site
												{
													OFFSET 8.448181 10.159340 1.910823
												}
											}
										}
										JOINT Bip01__L_Ear_01
										{
											OFFSET 7.214943 7.717056 -4.356771
											CHANNELS 3 Xrotation Yrotation Zrotation
											JOINT Bip01_Xtra03Nub
											{
												OFFSET 9.230225 8.944366 -2.322746
												CHANNELS 3 Xrotation Yrotation Zrotation
												End Site
												{
													OFFSET 8.170288 9.841324 -2.643566
												}
											}
										}
										JOINT Bip01_Jaw
										{
											OFFSET 9.196068 -4.110695 -0.000013
											CHANNELS 3 Xrotation Yrotation Zrotation
											JOINT Bip01_Ponytail1Nub
											{
												OFFSET 10.976463 -21.082108 -0.000053
												CHANNELS 3 Xrotation Yrotation Zrotation
												End Site
												{
													OFFSET 11.247093 -20.938980 0.000113
												}
											}
										}
										JOINT Bip01_HeadNub
										{
											OFFSET 29.954575 -18.249489 -0.000063
											CHANNELS 3 Xrotation Yrotation Zrotation
											End Site
											{
												OFFSET -9.198448 -13.366348 0.000168
											}
										}
									}
								}
							}
						}
					}
				}
			}
		}
	}
}
MOTION
Frames: 4
Frame Time: 0.033333
0.000000 0.000000 0.000000 0.000008 0.000000 -0.000000 -0.000000 0.000000 -0.000000 0.000000 0.000000 -0.000006 -1.737529 4.992992 -3.011442 -2.996164 2.721318 36.272884 0.030333 -0.089763 21.735385 -0.116123 -0.071495 24.382105 -0.098530 -0.159088 8.411401 0.076158 -0.758648 -8.088684 0.362439 -2.587181 3.030777 1.492246 -0.132410 12.868385 -0.471943 -0.035777 2.397469 -0.286397 -0.019316 1.454063 0.130627 -2.151695 -16.665858 -0.000077 -0.000050 -0.000025 0.000004 -0.000138 -0.000017 -1.356334 -9.780331 -9.678847 1.026765 0.103416 5.228164 -3.775576 0.432276 -19.333713 2.385984 8.406239 23.570553 -0.000072 0.000034 -0.000021 0.008779 -0.000567 0.038579 -0.165174 -1.993160 -0.002863 1.677011 -0.397201 0.010988 -2.897464 -0.250324 0.083968 0.518150 -3.966351 0.017906 0.000078 -0.000112 -0.000055 -0.000047 -0.041853 0.027948 -0.000047 0.000009 -0.000031 6.612640 11.512011 -15.509075 4.975585 5.266171 -6.968500 6.158844 -13.408025 7.502036 -4.586619 12.642035 -14.832939 1.941102 5.171784 -4.143070 0.026780 -0.437401 10.699870 -2.716882 2.017509 2.818676 2.111650 0.866614 -2.181469 -1.353223 3.861798 5.945729 -0.781868 0.140347 -0.478807 -0.804181 0.123492 -0.482652 -4.422830 12.973579 0.346700 2.478407 5.100903 9.324720 -0.123027 0.829928 20.565285 -2.845133 1.367900 -49.353345 -0.462538 -0.483655 -26.445791 -0.829021 0.156017 2.005092 0.036615 0.063819 2.451862 -0.000914 0.100646 2.451954 -0.000097 -0.000028 0.000165 0.006679 0.002369 -0.006345 -0.006454 -0.002313 0.006164 0.149665 -13.165814 -14.411685 2.961109 0.227636 -0.011495 6.700068 0.620298 -0.154786 12.805465 1.165315 -0.351755 -18.804995 -12.166144 -49.132057 -0.000001 0.000307 30.000025 5.808445 13.747209 -11.975624 -0.001111 0.002202 -45.339223 -0.000019 -0.000030 -1.797736 0.000014 -0.000037 -2.378448 -0.000113 0.002645 -70.699049 -23.901948 -11.933118 -2.566484 34.949214 16.671940 -5.206542 -0.000712 0.001392 -47.117794 0.000006 0.000018 0.000002 -0.000092 0.000110 8.404363 2.605239 -0.577631 5.634454 0.000057 -0.000072 0.000026 0.018760 -0.023290 11.778595 0.000056 -0.000051 0.000013 0.023220 -0.032293 11.716016 0.885426 1.335103 -11.105667 0.050256 0.015078 11.755981 -1.290212 -1.929237 -11.270268 0.038937 0.011450 11.744836 -0.000044 0.000035 -0.000026 -0.003506 -0.040865 11.750680 0.000056 -0.000026 11.750673 
0.000000 0.000000 0.000000 0.000008 0.000000 -0.000000 -0.000000 0.000000 -0.000000 0.000000 0.000000 -0.000006 -1.263877 4.918961 -2.970420 -2.996164 2.721318 36.272884 -0.529221 1.286964 20.873125 -0.384589 0.501407 24.284738 -0.187123 0.340826 9.155732 0.114931 -0.196379 -6.165021 0.164899 -2.811998 3.021770 1.095616 0.025163 13.878734 0.032978 0.001756 -0.167309 -0.822687 -0.075263 4.185115 0.580224 -2.156086 -19.378102 -0.000077 -0.000050 -0.000025 0.000006 -0.000139 -0.000027 -1.453305 -9.334713 -7.740312 0.600601 0.048993 3.052432 -3.519012 0.361023 -17.986706 2.706427 8.301980 22.946133 -0.114719 0.000572 -0.536675 0.008779 -0.000567 0.038579 -0.325948 -1.657997 -0.008816 1.454911 -0.439122 -0.189917 -2.897468 -0.250324 0.083969 0.333581 -4.006402 0.005803 0.000078 -0.000112 -0.000057 -0.000047 -0.041853 0.027948 -0.000042 0.000010 -0.000030 6.612641 11.512011 -15.509068 4.975589 5.266171 -6.968501 6.265963 -13.431116 7.563949 -4.671279 12.742368 -14.491433 1.629487 5.215354 -4.731721 0.042176 -0.525251 12.874674 -2.248235 1.953323 2.284629 1.932833 0.758976 -3.523074 -1.353210 3.861749 5.945681 -0.781895 0.140347 -0.478810 -0.804181 0.123492 -0.482652 -4.516262 13.020158 0.266798 2.267412 4.968457 6.417875 -0.192689 1.010665 25.289889 -2.607019 1.258345 -55.045488 -1.116040 -0.179248 -30.881375 -0.829151 0.156007 2.005130 0.036642 0.063820 2.451854 -0.000914 0.100646 2.451948 -0.000125 -0.000039 0.000128 -0.112456 -0.010518 0.013420 -0.316857 -0.044468 0.053082 0.122017 -13.286585 -14.416952 2.721881 0.205224 -0.006383 6.605714 0.606818 0.021557 12.464088 1.163931 -0.191240 -18.994898 -12.277087 -49.142849 0.000001 0.000311 30.546173 5.981141 13.737313 -12.680044 0.000536 0.001541 -45.297459 -0.000019 -0.000029 -1.797734 0.000014 -0.000036 -2.378449 0.000741 0.002307 -70.631526 -23.901946 -11.933118 -2.566482 34.949214 16.671940 -5.206546 0.000314 0.000981 -47.077721 0.000007 0.000015 -0.000002 -0.016274 -0.049512 8.121944 4.633187 0.011412 7.820656 0.000059 -0.000072 0.000027 0.018775 -0.023282 11.778624 0.000057 -0.000053 0.000014 0.023231 -0.032282 11.715982 0.885430 1.335101 -11.105668 0.050274 0.015100 11.755984 -1.290206 -1.929239 -11.270269 0.038944 0.011476 11.744822 -0.000041 0.000035 -0.000024 -0.003492 -0.040883 11.750686 0.000060 -0.000025 11.750671 
0.000000 0.000000 0.000000 0.000008 0.000000 -0.000000 -0.000000 0.000000 -0.000000 0.000000 0.000000 -0.000006 -0.714439 4.736229 -2.828803 -2.996164 2.721317 36.272881 -1.057967 2.645032 20.040047 -0.658730 1.058276 24.036351 -0.280364 0.829840 9.886413 0.134425 0.355955 -4.279049 -0.017433 -3.053540 3.007505 0.546366 0.386116 14.845631 0.978593 0.011216 -4.959009 -1.735387 -0.230715 8.873762 1.313217 -2.402541 -23.389033 -0.000077 -0.000050 -0.000025 -0.000006 -0.000137 0.000027 -1.671056 -8.727932 -5.980660 0.189121 0.011956 0.959860 -3.226009 0.287502 -16.458236 3.022104 8.142718 22.178980 -0.239072 0.002365 -1.118814 0.008779 -0.000565 0.038579 -0.513678 -1.198564 -0.012825 1.236979 -0.479454 -0.387076 -2.897471 -0.250324 0.083968 0.097401 -3.938936 -0.011011 0.000078 -0.000112 -0.000055 -0.000047 -0.041853 0.027948 -0.000044 0.000012 -0.000028 6.612646 11.512011 -15.509073 4.975585 5.266170 -6.968501 6.413668 -13.449698 7.721526 -4.775609 12.857616 -14.195459 1.273719 5.132659 -4.882183 0.057104 -0.596034 14.638622 -1.712343 1.839419 1.089149 1.607345 0.628344 -4.250413 -1.353212 3.861716 5.945707 -0.781921 0.140347 -0.478811 -0.804181 0.123492 -0.482652 -4.639417 13.151056 -0.373491 1.894434 4.660345 3.224856 -0.284890 1.199643 30.419446 -2.209339 0.958730 -59.852695 -2.045269 0.361464 -37.095816 -0.829199 0.156072 2.005121 0.036669 0.063820 2.451860 -0.000913 0.100646 2.451957 -0.000124 -0.000037 0.000127 -0.390001 -0.040681 0.059357 -0.621222 -0.085986 0.098803 0.009931 -13.470463 -14.427716 2.188535 0.155206 0.004743 6.365496 0.580123 0.198617 11.403888 1.095405 0.007246 -19.241022 -12.473134 -49.329474 0.000001 0.000312 31.976057 6.406146 13.689034 -14.357978 0.000537 0.001540 -45.237176 -0.000021 -0.000029 -1.797731 0.000012 -0.000036 -2.378451 0.000735 0.002307 -70.533950 -23.901946 -11.933115 -2.566483 34.949214 16.671944 -5.206542 0.000317 0.000984 -47.013210 0.000006 0.000018 -0.000007 -0.063540 -0.185435 7.403402 6.598342 0.663789 9.943142 0.000062 -0.000074 0.000033 0.018784 -0.023279 11.778646 0.000061 -0.000065 0.000011 0.023248 -0.032280 11.715965 0.885430 1.335100 -11.105661 0.050289 0.015122 11.755991 -1.290207 -1.929239 -11.270265 0.038959 0.011502 11.744823 -0.000038 0.000033 -0.000024 -0.003467 -0.040907 11.750684 0.000060 -0.000027 11.750675 
0.000000 0.000000 0.000000 0.000008 0.000000 -0.000000 -0.000000 0.000000 -0.000000 0.000000 0.000000 -0.000006 -0.093754 4.455376 -2.600959 -2.996164 2.721318 36.272881 -1.382880 3.568617 19.382759 -0.925962 1.621128 23.682605 -0.402915 1.318482 10.590911 0.135743 0.914063 -2.374395 -0.196165 -3.300316 2.985038 -0.060136 0.905076 15.338614 1.995776 -0.067183 -10.128064 -2.711890 -0.484401 13.979858 2.140187 -2.804369 -27.694419 -0.000077 -0.000048 -0.000025 -0.000006 -0.000138 0.000026 -1.982737 -7.981157 -4.362750 -0.197363 -0.009090 -1.000789 -2.904732 0.216347 -14.792827 3.330149 7.947411 21.257868 -0.374983 0.005771 -1.755184 0.008779 -0.000566 0.038579 -0.722367 -0.635889 -0.012655 1.016765 -0.519453 -0.586345 -2.897477 -0.250324 0.083968 -0.180837 -3.776727 -0.030411 0.000078 -0.000112 -0.000056 -0.000047 -0.041852 0.027948 -0.000051 0.000013 0.000009 6.612636 11.512011 -15.509071 4.975587 5.266175 -6.968498 6.593491 -13.464212 7.954627 -4.894830 12.987940 -13.917740 0.883836 4.933817 -4.611363 0.069560 -0.648137 15.944906 -1.133652 1.667846 -0.453611 1.194732 0.486793 -4.653187 -1.353203 3.861654 5.945694 -0.781977 0.140347 -0.478814 -0.804181 0.123492 -0.482652 -4.783609 13.350163 -1.463469 1.422752 4.230628 0.091392 -0.386704 1.369182 35.244111 -1.746291 0.534497 -63.510637 -3.017001 1.075513 -43.764475 -0.829114 0.156070 2.005130 0.036723 0.063819 2.451860 -0.000960 0.100644 2.451941 -0.000162 -0.000029 0.000187 -0.773126 -0.082695 0.122541 -0.928582 -0.128120 0.144725 -0.175671 -13.707548 -14.443432 1.545645 0.094730 0.017485 6.032810 0.544589 0.391464 10.333728 1.019479 0.206821 -19.528489 -12.739974 -49.659444 0.000007 0.000346 34.104022 7.032926 13.599080 -16.791764 0.000537 0.001542 -45.157878 -0.000020 -0.000029 -1.797737 0.000013 -0.000036 -2.378451 0.000737 0.002308 -70.412461 -23.901946 -11.933113 -2.566484 34.949241 16.671939 -5.206563 0.000317 0.000987 -46.948053 0.000024 0.000011 -0.000020 -0.144968 -0.399887 6.377367 6.750036 0.804660 9.873470 0.000055 -0.000071 0.000031 0.018825 -0.023266 11.778689 0.000061 -0.000063 0.000013 0.023276 -0.032277 11.715917 0.885429 1.335100 -11.105666 0.050303 0.015175 11.755998 -1.290208 -1.929239 -11.270273 0.038984 0.011546 11.744812 -0.000042 0.000037 -0.000026 -0.003435 -0.040950 11.750690 0.000055 -0.000025 11.750674 
